<svg width="11193" height="11156" viewBox="0 0 11193 11156" fill="none" xmlns="http://www.w3.org/2000/svg">
<path d="M8795.57 7527.08L8794.16 3899.03L8729.3 3969.23C8694.05 4008.54 8159.71 4610.88 7542.17 5310.09C6924.64 6009.31 6113.96 6924.74 5741.75 7345.95C5369.54 7767.17 4901.45 8297.9 4699.84 8525.35C4499.63 8752.81 4244.44 9040.63 4135.88 9164.19C4025.91 9287.75 3718.56 9635.95 3453.5 9936.41C3187.03 10238.3 2840.2 10630 2683.7 10806.9L2398.9 11129.9L2266.37 11125.6C1560.02 11107.4 1015.8 10913.6 626.67 10547.2C336.232 10272 126.159 9832.52 48.6151 9331.27C-0.731062 9016.77 -3.55083 8742.98 2.08873 5331.15C7.72828 1746.63 6.3184 1849.12 75.403 1455.99C176.915 876.123 391.218 536.345 808.545 290.637C1118.72 109.515 1503.62 23.8688 2098.59 8.42429L2387.62 0L3987.84 1847.72C4867.62 2864.25 5590.89 3695.44 5595.12 3695.44C5599.35 3695.44 6322.62 2864.25 7202.39 1847.72L8802.62 0L9049.35 8.42429C9755.7 32.293 10314 203.586 10635.5 497.031C10776.5 624.799 10914.6 832.598 11000.6 1046.01C11088 1265.04 11151.5 1613.25 11178.3 2019.01C11198 2320.88 11196.6 8737.36 11178.3 9023.79C11133.2 9693.51 10944.2 10176.5 10588.9 10537.3C10383.1 10746.5 10135 10895.4 9823.38 10997.9C9566.78 11082.1 9339.78 11118.6 8940.78 11145.3L8795.57 11155.1V7527.08V7527.08ZM3023.48 6686.05C3332.25 6326.62 3663.57 5943.32 3759.44 5832.4C3913.12 5655.49 3931.45 5628.81 3914.53 5609.15C3899.02 5588.09 2441.2 3924.3 2407.36 3886.39C2400.31 3877.97 2394.67 4650.19 2394.67 5640.04V7409.14L2428.51 7374.04C2445.43 7354.38 2713.31 7045.49 3023.48 6686.05Z" fill="#53C2DE"/>
</svg>
